<svg width="24" height="24" viewBox="0 0 24 24" fill="none" xmlns="http://www.w3.org/2000/svg">
<path fill-rule="evenodd" clip-rule="evenodd" d="M12.7472 1.85995C13.2133 1.15945 14.3049 1.48943 14.3049 2.33081V9.71662L18.6763 9.14318C19.4106 9.04686 19.9083 9.87021 19.4817 10.4756L11.2386 22.1741C10.7607 22.8523 9.69379 22.5142 9.69379 21.6845V14.4008L5.44461 15.5159C4.68879 15.7142 4.08832 14.8734 4.5212 14.2228L12.7472 1.85995ZM12.8049 4.48107L6.7165 13.6313L9.6265 12.8677C10.4189 12.6597 11.1938 13.2575 11.1938 14.0767V19.6335L17.4018 10.8232L14.2175 11.2409C13.469 11.3391 12.8049 10.7565 12.8049 10.0016V4.48107Z" fill="#E0E0E9"/>
</svg>
